# xmcd CD database file
#
# Track frame offsets:
#	150
#	25362
#	42326
#	64904
#	91075
#	119670
#	143172
#	179313
#	203600
#
# Disc length: 3012 seconds
#
# Revision: 0
# Processed by: cddbd v1.5.1PL0 Copyright (c) Steve Scherf et al.
# Submitted via: CDex 1.51
#
DISCID=7c0bc209
DTITLE=女子十二楽坊 - ベストセレクション〜日本公演2004”奇跡”より〜 [CD2]
DYEAR=2004
DGENRE=Instrumental Pop
TTITLE0=リール・アラウンド・ザ・サン（リバーダンスより） (LIVE)
TTITLE1=オンリー・タイム (LIVE)
TTITLE2=世界に一つだけの花 (LIVE)
TTITLE3=紫禁城 (LIVE)
TTITLE4=山水（組曲） (LIVE)
TTITLE5=大峡谷 (LIVE)
TTITLE6=メドレー（明日への扉〜いい日旅立ち〜地上の星） (LIVE)
TTITLE7=自由 (LIVE)
TTITLE8=クロックス
EXTD=YEAR: 2004
EXTT0=
EXTT1=
EXTT2=
EXTT3=
EXTT4=
EXTT5=
EXTT6=
EXTT7=
EXTT8=
PLAYORDER=
